<?xml version="1.0" encoding="UTF-8" standalone="no"?>
<!-- Created with Inkscape (http://www.inkscape.org/) -->

<svg
   xmlns:dc="http://purl.org/dc/elements/1.1/"
   xmlns:cc="http://creativecommons.org/ns#"
   xmlns:rdf="http://www.w3.org/1999/02/22-rdf-syntax-ns#"
   xmlns:svg="http://www.w3.org/2000/svg"
   xmlns="http://www.w3.org/2000/svg"
   xmlns:sodipodi="http://sodipodi.sourceforge.net/DTD/sodipodi-0.dtd"
   xmlns:inkscape="http://www.inkscape.org/namespaces/inkscape"
   width="533.36053"
   height="777.81744"
   id="svg2"
   version="1.1"
   inkscape:version="0.48.2 r9819"
   sodipodi:docname="pants.svg"
   inkscape:export-filename="/Users/dougtangren/code/scala/projects/guavapants/pants.png"
   inkscape:export-xdpi="90"
   inkscape:export-ydpi="90">
  <defs
     id="defs4">
    <inkscape:path-effect
       effect="skeletal"
       id="path-effect3073"
       is_visible="true"
       pattern="M 0,0 0,10 10,5 z"
       copytype="single_stretched"
       prop_scale="1"
       scale_y_rel="false"
       spacing="0"
       normal_offset="0"
       tang_offset="0"
       prop_units="false"
       vertical_pattern="false"
       fuse_tolerance="0" />
    <inkscape:path-effect
       effect="skeletal"
       id="path-effect3069"
       is_visible="true"
       pattern="M 0,0 1,0"
       copytype="single_stretched"
       prop_scale="1"
       scale_y_rel="false"
       spacing="0"
       normal_offset="0"
       tang_offset="0"
       prop_units="false"
       vertical_pattern="false"
       fuse_tolerance="0" />
    <inkscape:path-effect
       effect="spiro"
       id="path-effect3067"
       is_visible="true" />
    <inkscape:path-effect
       effect="skeletal"
       id="path-effect3061"
       is_visible="true"
       pattern="M 0,0 1,0"
       copytype="single_stretched"
       prop_scale="1"
       scale_y_rel="false"
       spacing="0"
       normal_offset="0"
       tang_offset="0"
       prop_units="false"
       vertical_pattern="false"
       fuse_tolerance="0" />
    <inkscape:path-effect
       effect="spiro"
       id="path-effect3059"
       is_visible="true" />
    <inkscape:path-effect
       effect="skeletal"
       id="path-effect3055"
       is_visible="true"
       pattern="M 0,0 1,0"
       copytype="single_stretched"
       prop_scale="1"
       scale_y_rel="false"
       spacing="0"
       normal_offset="0"
       tang_offset="0"
       prop_units="false"
       vertical_pattern="false"
       fuse_tolerance="0" />
    <inkscape:path-effect
       effect="spiro"
       id="path-effect3053"
       is_visible="true" />
  </defs>
  <sodipodi:namedview
     id="base"
     pagecolor="#ffffff"
     bordercolor="#666666"
     borderopacity="1.0"
     inkscape:pageopacity="0.0"
     inkscape:pageshadow="2"
     inkscape:zoom="0.7"
     inkscape:cx="194.35007"
     inkscape:cy="657.20887"
     inkscape:document-units="px"
     inkscape:current-layer="layer3"
     showgrid="false"
     showborder="true"
     inkscape:showpageshadow="false"
     borderlayer="false"
     inkscape:window-width="1280"
     inkscape:window-height="735"
     inkscape:window-x="23"
     inkscape:window-y="74"
     inkscape:window-maximized="0"
     fit-margin-top="0"
     fit-margin-left="0"
     fit-margin-right="0"
     fit-margin-bottom="0" />
  <metadata
     id="metadata7">
    <rdf:RDF>
      <cc:Work
         rdf:about="">
        <dc:format>image/svg+xml</dc:format>
        <dc:type
           rdf:resource="http://purl.org/dc/dcmitype/StillImage" />
        <dc:title></dc:title>
      </cc:Work>
    </rdf:RDF>
  </metadata>
  <g
     inkscape:groupmode="layer"
     id="layer4"
     inkscape:label="bg"
     style="display:inline"
     transform="translate(1.3627266e-7,-1.8035365)"
     sodipodi:insensitive="true">
    <rect
       style="fill:#ee5578;fill-opacity:1;stroke:none"
       id="rect4154"
       width="533.36053"
       height="775.92084"
       x="-1.3627266e-07"
       y="3.7001412"
       rx="1.4980371" />
  </g>
  <g
     inkscape:groupmode="layer"
     id="layer3"
     inkscape:label="pants"
     style="display:inline"
     transform="translate(1.3627266e-7,-1.8035365)">
    <path
       inkscape:connector-curvature="0"
       id="rect2989"
       d="m 98.75497,24.238602 c 5.52259,0.43778 9.61529,5.225347 9.17644,10.734481 L 50.89773,750.9605 c -0.43884,5.50913 -5.23812,9.59184 -10.76071,9.15407 -5.52259,-0.43778 -9.61529,-5.22535 -9.17644,-10.73447 L 87.99426,33.392676 c 0.43884,-5.509134 5.23812,-9.591844 10.76071,-9.154074 z"
       style="fill:#ffffff;fill-opacity:1;stroke:none;display:inline" />
    <path
       inkscape:connector-curvature="0"
       id="rect3013"
       d="m 101.20185,23.933807 334.63115,0 c 5.64217,0 10.18442,3.177952 10.18442,7.125443 0,3.947491 -4.54225,7.125443 -10.18442,7.125443 l -334.63115,0 c -5.64217,0 -10.18443,-3.177952 -10.18443,-7.125443 0,-3.947491 4.54226,-7.125443 10.18443,-7.125443 z"
       style="fill:#ffffff;fill-opacity:1;stroke:none;display:inline" />
    <path
       inkscape:connector-curvature="0"
       id="rect3024"
       d="m 212.29651,222.7336 116.01329,0 c 6.2486,0 11.27907,4.44912 11.27907,9.97561 0,5.52649 -5.03047,9.97562 -11.27907,9.97562 l -116.01329,0 c -6.24861,0 -11.27907,-4.44913 -11.27907,-9.97562 0,-5.52649 5.03046,-9.97561 11.27907,-9.97561 z"
       style="fill:#ffffff;fill-opacity:1;stroke:none;display:inline" />
    <path
       inkscape:connector-curvature="0"
       id="rect3031"
       d="m 256.40267,25.07389 12.59718,0 c 1.16314,0 2.09952,0.934107 2.09952,2.094401 l 0,206.724229 c 0,1.1603 -0.93638,2.0944 -2.09952,2.0944 l -12.59718,0 c -1.16314,0 -2.09953,-0.9341 -2.09953,-2.0944 l 0,-206.724229 c 0,-1.160294 0.93639,-2.094401 2.09953,-2.094401 z"
       style="fill:#ffffff;fill-opacity:1;stroke:none;display:inline" />
    <path
       inkscape:connector-curvature="0"
       id="rect3033"
       d="m 204.71196,228.3617 16.94232,2.60823 c 1.56433,0.24082 2.62935,1.69101 2.38793,3.25153 l -79.74562,515.48 c -0.24142,1.56052 -1.69514,2.62294 -3.25947,2.38211 l -16.94232,-2.60823 c -1.56433,-0.24083 -2.62935,-1.69101 -2.38794,-3.25153 l 79.74563,-515.47999 c 0.24141,-1.56053 1.69514,-2.62295 3.25947,-2.38212 z"
       style="fill:#ffffff;fill-opacity:1;stroke:none;display:inline" />
    <path
       inkscape:connector-curvature="0"
       id="rect3035"
       d="m 333.03455,228.67373 2.32494,-0.36982 c 4.50805,-0.71707 8.61219,3.11717 9.2021,8.59695 l 53.24094,494.56445 c 0.58991,5.47977 -2.56441,10.46856 -7.07246,11.18563 l -2.32494,0.36981 c -4.50806,0.71707 -8.61219,-3.11717 -9.2021,-8.59694 L 325.96209,239.85935 c -0.58991,-5.47977 2.56441,-10.46857 7.07246,-11.18562 z"
       style="fill:#ffffff;fill-opacity:1;stroke:none;display:inline" />
    <path
       inkscape:connector-curvature="0"
       id="rect3037"
       d="m 429.02978,30.521345 14.23927,-1.148413 c 1.5777,-0.127249 2.95054,1.037364 3.07809,2.611217 l 57.56124,710.226611 c 0.12756,1.57386 -1.0399,2.94334 -2.6176,3.07058 l -14.23927,1.14842 c -1.5777,0.12725 -2.95052,-1.03735 -3.07808,-2.61121 L 426.41219,33.591929 c -0.12756,-1.573853 1.03989,-2.943335 2.61759,-3.070584 z"
       style="fill:#ffffff;fill-opacity:1;stroke:none;display:inline" />
    <path
       inkscape:connector-curvature="0"
       id="rect3039"
       d="m 47.53258,741.32311 85.54112,0 c 6.37939,0 11.51515,4.44913 11.51515,9.97562 0,5.52649 -5.13576,9.97562 -11.51515,9.97562 l -85.54112,0 c -6.3794,0 -11.51516,-4.44913 -11.51516,-9.97562 0,-5.52649 5.13576,-9.97562 11.51516,-9.97562 z"
       style="fill:#ffffff;fill-opacity:1;stroke:none;display:inline" />
    <path
       inkscape:connector-curvature="0"
       id="rect3047"
       d="m 395.81819,734.48271 94.39849,0 c 5.90447,0 10.65789,3.17795 10.65789,7.12545 0,3.94749 -4.75342,7.12544 -10.65789,7.12544 l -94.39849,0 c -5.90448,0 -10.6579,-3.17795 -10.6579,-7.12544 0,-3.9475 4.75342,-7.12545 10.6579,-7.12545 z"
       style="fill:#ffffff;fill-opacity:1;stroke:none;display:inline" />
    <path
       style="font-size:medium;font-style:normal;font-variant:normal;font-weight:normal;font-stretch:normal;text-indent:0;text-align:start;text-decoration:none;line-height:normal;letter-spacing:normal;word-spacing:normal;text-transform:none;direction:ltr;block-progression:tb;writing-mode:lr-tb;text-anchor:start;baseline-shift:baseline;color:#000000;fill:#ffffff;fill-opacity:1;stroke:none;stroke-width:15;marker:none;visibility:visible;display:inline;overflow:visible;enable-background:accumulate;font-family:Sans;-inkscape-font-specification:Sans"
       d="m 168.9951,31.8692 c -3.20069,2.335711 -7.37509,3.77203 -11.96875,3.77203 -0.89133,0 -1.76799,-0.05287 -2.625,-0.155869 0.46255,2.792644 0.71875,5.665232 0.71875,8.603969 l 0,35.475786 c 0,29.143494 -23.28527,52.371984 -52.5,52.371984 l -5.25,0 c -2.53271,0 -5.00522,-0.19208 -7.4375,-0.52995 -1.44641,5.20281 -3.70576,9.95686 -6.625,14.02821 4.53759,0.96043 9.23901,1.46517 14.0625,1.46517 l 5.25,0 c 37.26527,0 67.5,-30.16101 67.5,-67.335414 l 0,-35.475786 c 0,-4.17693 -0.39563,-8.25566 -1.125,-12.22013 z"
       id="path4027"
       inkscape:connector-curvature="0" />
    <path
       inkscape:connector-curvature="0"
       id="rect4085"
       d="m 173.10669,63.85777 193.14218,0 c 5.54,0 10,2.921289 10,6.549979 0,3.628691 -4.46,6.54998 -10,6.54998 l -193.14218,0 c -5.54,0 -10,-2.921289 -10,-6.54998 0,-3.62869 4.46,-6.549979 10,-6.549979 z"
       style="fill:#ffffff;fill-opacity:1;stroke:none;display:inline" />
    <path
       style="font-size:medium;font-style:normal;font-variant:normal;font-weight:normal;font-stretch:normal;text-indent:0;text-align:start;text-decoration:none;line-height:normal;letter-spacing:normal;word-spacing:normal;text-transform:none;direction:ltr;block-progression:tb;writing-mode:lr-tb;text-anchor:start;baseline-shift:baseline;color:#000000;fill:#ffffff;fill-opacity:1;stroke:none;stroke-width:15;marker:none;visibility:visible;display:inline;overflow:visible;enable-background:accumulate;font-family:Sans;-inkscape-font-specification:Sans"
       d="m 312.46862,26.738883 c -3.67466,1.787388 -7.54744,3.339976 -11.58082,4.661454 l 0,101.723973 c 0,15.32263 -2.51911,29.06732 -6.17644,38.365 -3.65733,9.29768 -7.88675,13.15634 -11.19479,13.15634 l -17.63663,0 c -0.93327,0 -1.94254,-0.30095 -2.99171,-0.95069 -1.10915,5.16782 -2.33443,9.88295 -3.64313,14.07636 2.0736,1.02951 4.28873,1.59471 6.63484,1.59471 l 17.63663,0 c 9.5235,0 16.85367,-9.29523 21.56928,-21.28321 4.7156,-11.988 7.38277,-27.66076 7.38277,-44.95851 l 0,-105.281398 c 0,-0.37063 0.002,-0.734881 0,-1.104029 z"
       id="rect4094"
       inkscape:connector-curvature="0" />
    <path
       inkscape:connector-curvature="0"
       id="path4198"
       d="m 370.4326,31.8692 c 3.20069,2.335711 7.37509,3.77203 11.96875,3.77203 0.89133,0 1.76799,-0.05287 2.625,-0.155869 -0.46255,2.792644 -0.71875,5.665232 -0.71875,8.603969 l 0,35.475786 c 0,29.143494 23.28527,52.371984 52.5,52.371984 l 5.25,0 c 2.53271,0 5.00522,-0.19208 7.4375,-0.52995 1.44641,5.20281 3.70576,9.95686 6.625,14.02821 -4.53759,0.96043 -9.23901,1.46517 -14.0625,1.46517 l -5.25,0 c -37.26527,0 -67.5,-30.16101 -67.5,-67.335414 l 0,-35.475786 c 0,-4.17693 0.39563,-8.25566 1.125,-12.22013 z"
       style="font-size:medium;font-style:normal;font-variant:normal;font-weight:normal;font-stretch:normal;text-indent:0;text-align:start;text-decoration:none;line-height:normal;letter-spacing:normal;word-spacing:normal;text-transform:none;direction:ltr;block-progression:tb;writing-mode:lr-tb;text-anchor:start;baseline-shift:baseline;color:#000000;fill:#ffffff;fill-opacity:1;stroke:none;stroke-width:15;marker:none;visibility:visible;display:inline;overflow:visible;enable-background:accumulate;font-family:Sans;-inkscape-font-specification:Sans" />
  </g>
</svg>
