<?xml version="1.0" encoding="UTF-8" standalone="no"?>
<!-- Created with Inkscape (http://www.inkscape.org/) -->

<svg
   xmlns:dc="http://purl.org/dc/elements/1.1/"
   xmlns:cc="http://creativecommons.org/ns#"
   xmlns:rdf="http://www.w3.org/1999/02/22-rdf-syntax-ns#"
   xmlns:svg="http://www.w3.org/2000/svg"
   xmlns="http://www.w3.org/2000/svg"
   xmlns:sodipodi="http://sodipodi.sourceforge.net/DTD/sodipodi-0.dtd"
   xmlns:inkscape="http://www.inkscape.org/namespaces/inkscape"
   width="533.36053"
   height="777.81744"
   id="svg2"
   version="1.1"
   inkscape:version="0.48.2 r9819"
   sodipodi:docname="pants.svg">
  <defs
     id="defs4">
    <inkscape:path-effect
       effect="skeletal"
       id="path-effect3073"
       is_visible="true"
       pattern="M 0,0 0,10 10,5 z"
       copytype="single_stretched"
       prop_scale="1"
       scale_y_rel="false"
       spacing="0"
       normal_offset="0"
       tang_offset="0"
       prop_units="false"
       vertical_pattern="false"
       fuse_tolerance="0" />
    <inkscape:path-effect
       effect="skeletal"
       id="path-effect3069"
       is_visible="true"
       pattern="M 0,0 1,0"
       copytype="single_stretched"
       prop_scale="1"
       scale_y_rel="false"
       spacing="0"
       normal_offset="0"
       tang_offset="0"
       prop_units="false"
       vertical_pattern="false"
       fuse_tolerance="0" />
    <inkscape:path-effect
       effect="spiro"
       id="path-effect3067"
       is_visible="true" />
    <inkscape:path-effect
       effect="skeletal"
       id="path-effect3061"
       is_visible="true"
       pattern="M 0,0 1,0"
       copytype="single_stretched"
       prop_scale="1"
       scale_y_rel="false"
       spacing="0"
       normal_offset="0"
       tang_offset="0"
       prop_units="false"
       vertical_pattern="false"
       fuse_tolerance="0" />
    <inkscape:path-effect
       effect="spiro"
       id="path-effect3059"
       is_visible="true" />
    <inkscape:path-effect
       effect="skeletal"
       id="path-effect3055"
       is_visible="true"
       pattern="M 0,0 1,0"
       copytype="single_stretched"
       prop_scale="1"
       scale_y_rel="false"
       spacing="0"
       normal_offset="0"
       tang_offset="0"
       prop_units="false"
       vertical_pattern="false"
       fuse_tolerance="0" />
    <inkscape:path-effect
       effect="spiro"
       id="path-effect3053"
       is_visible="true" />
  </defs>
  <sodipodi:namedview
     id="base"
     pagecolor="#ffffff"
     bordercolor="#666666"
     borderopacity="1.0"
     inkscape:pageopacity="0.0"
     inkscape:pageshadow="2"
     inkscape:zoom="0.49497475"
     inkscape:cx="438.80698"
     inkscape:cy="371.49459"
     inkscape:document-units="px"
     inkscape:current-layer="layer3"
     showgrid="false"
     showborder="true"
     inkscape:showpageshadow="false"
     borderlayer="false"
     inkscape:window-width="1280"
     inkscape:window-height="735"
     inkscape:window-x="23"
     inkscape:window-y="74"
     inkscape:window-maximized="0"
     fit-margin-top="0"
     fit-margin-left="0"
     fit-margin-right="0"
     fit-margin-bottom="0" />
  <metadata
     id="metadata7">
    <rdf:RDF>
      <cc:Work
         rdf:about="">
        <dc:format>image/svg+xml</dc:format>
        <dc:type
           rdf:resource="http://purl.org/dc/dcmitype/StillImage" />
        <dc:title></dc:title>
      </cc:Work>
    </rdf:RDF>
  </metadata>
  <g
     inkscape:groupmode="layer"
     id="layer4"
     inkscape:label="bg"
     style="display:inline"
     transform="translate(1.3627266e-7,-1.8035365)">
    <rect
       style="fill:#ee5578;fill-opacity:1;stroke:none"
       id="rect4154"
       width="533.36053"
       height="777.81744"
       x="-1.3627266e-07"
       y="1.8035365"
       rx="1.4980371" />
  </g>
  <g
     inkscape:groupmode="layer"
     id="layer3"
     inkscape:label="pants"
     style="display:inline"
     transform="translate(1.3627266e-7,-1.8035365)">
    <path
       inkscape:connector-curvature="0"
       id="rect2989"
       d="m 98.75497,22.3922 c 5.52259,0.43885 9.61529,5.23812 9.17644,10.76072 L 50.89773,750.89044 c -0.43884,5.5226 -5.23812,9.61529 -10.76071,9.17645 -5.52259,-0.43885 -9.61529,-5.23812 -9.17644,-10.76071 L 87.99426,31.56865 c 0.43884,-5.5226 5.23812,-9.61529 10.76071,-9.17645 z"
       style="fill:#ffffff;fill-opacity:1;stroke:none;display:inline" />
    <path
       inkscape:connector-curvature="0"
       id="rect3013"
       d="m 101.20185,22.08666 334.63115,0 c 5.64217,0 10.18442,3.18572 10.18442,7.14286 0,3.95714 -4.54225,7.14286 -10.18442,7.14286 l -334.63115,0 c -5.64217,0 -10.18443,-3.18572 -10.18443,-7.14286 0,-3.95714 4.54226,-7.14286 10.18443,-7.14286 z"
       style="fill:#ffffff;fill-opacity:1;stroke:none;display:inline" />
    <path
       inkscape:connector-curvature="0"
       id="rect3024"
       d="m 212.29651,221.37238 116.01329,0 c 6.2486,0 11.27907,4.46 11.27907,10 0,5.54 -5.03047,10 -11.27907,10 l -116.01329,0 c -6.24861,0 -11.27907,-4.46 -11.27907,-10 0,-5.54 5.03046,-10 11.27907,-10 z"
       style="fill:#ffffff;fill-opacity:1;stroke:none;display:inline" />
    <path
       inkscape:connector-curvature="0"
       id="rect3031"
       d="m 256.40267,23.22953 12.59718,0 c 1.16314,0 2.09952,0.93639 2.09952,2.09952 l 0,207.22953 c 0,1.16314 -0.93638,2.09952 -2.09952,2.09952 l -12.59718,0 c -1.16314,0 -2.09953,-0.93638 -2.09953,-2.09952 l 0,-207.22953 c 0,-1.16313 0.93639,-2.09952 2.09953,-2.09952 z"
       style="fill:#ffffff;fill-opacity:1;stroke:none;display:inline" />
    <path
       inkscape:connector-curvature="0"
       id="rect3033"
       d="m 204.71196,227.01424 16.94232,2.61461 c 1.56433,0.24141 2.62935,1.69514 2.38793,3.25948 l -79.74562,516.74 c -0.24142,1.56433 -1.69514,2.62935 -3.25947,2.38793 l -16.94232,-2.61461 c -1.56433,-0.24141 -2.62935,-1.69514 -2.38794,-3.25947 l 79.74563,-516.74 c 0.24141,-1.56434 1.69514,-2.62936 3.25947,-2.38794 z"
       style="fill:#ffffff;fill-opacity:1;stroke:none;display:inline" />
    <path
       inkscape:connector-curvature="0"
       id="rect3035"
       d="m 333.03455,227.32703 2.32494,-0.37072 c 4.50805,-0.71882 8.61219,3.12479 9.2021,8.61796 l 53.24094,495.77333 c 0.58991,5.49317 -2.56441,10.49415 -7.07246,11.21297 l -2.32494,0.37072 c -4.50806,0.71882 -8.61219,-3.12479 -9.2021,-8.61796 L 325.96209,238.54 c -0.58991,-5.49317 2.56441,-10.49416 7.07246,-11.21297 z"
       style="fill:#ffffff;fill-opacity:1;stroke:none;display:inline" />
    <path
       inkscape:connector-curvature="0"
       id="rect3037"
       d="m 429.02978,28.6903 14.23927,-1.15122 c 1.5777,-0.12756 2.95054,1.0399 3.07809,2.6176 l 57.56124,711.96264 c 0.12756,1.5777 -1.0399,2.95053 -2.6176,3.07808 l -14.23927,1.15123 c -1.5777,0.12756 -2.95052,-1.03989 -3.07808,-2.61759 L 426.41219,31.76839 c -0.12756,-1.5777 1.03989,-2.95053 2.61759,-3.07809 z"
       style="fill:#ffffff;fill-opacity:1;stroke:none;display:inline" />
    <path
       inkscape:connector-curvature="0"
       id="rect3039"
       d="m 47.53258,741.2295 85.54112,0 c 6.37939,0 11.51515,4.46 11.51515,10 0,5.54 -5.13576,10 -11.51515,10 l -85.54112,0 c -6.3794,0 -11.51516,-4.46 -11.51516,-10 0,-5.54 5.13576,-10 11.51516,-10 z"
       style="fill:#ffffff;fill-opacity:1;stroke:none;display:inline" />
    <path
       inkscape:connector-curvature="0"
       id="rect3047"
       d="m 395.81819,734.37238 94.39849,0 c 5.90447,0 10.65789,3.18572 10.65789,7.14286 0,3.95714 -4.75342,7.14286 -10.65789,7.14286 l -94.39849,0 c -5.90448,0 -10.6579,-3.18572 -10.6579,-7.14286 0,-3.95714 4.75342,-7.14286 10.6579,-7.14286 z"
       style="fill:#ffffff;fill-opacity:1;stroke:none;display:inline" />
    <path
       style="fill:none;stroke:none;display:inline"
       d="m 190.3701,-85.3023 c -1.58285,0 -2.84375,1.29215 -2.84375,2.875 l 0,319.53125 c 0,1.58285 1.2609,2.875 2.84375,2.875 l 113.46875,0 c 1.58285,0 2.875,-1.29215 2.875,-2.875 l 0,-319.53125 c 0,-1.58285 -1.29215,-2.875 -2.875,-2.875 l -113.46875,0 z m 99.46875,25.1875 c 0.10523,-0.0211 0.21875,-0.0217 0.21875,0.0625 0,0.2375 -0.0192,0.43506 -0.0312,0.625 0.44081,-0.33686 1.14214,-0.625 2.28125,-0.625 2,0 2,2.03125 0,2.03125 -1.13911,0 -1.84044,-0.25689 -2.28125,-0.59375 0.0109,0.18263 0.0312,0.3681 0.0312,0.59375 0,0.16836 -0.36289,0 -0.53125,0 l -83.84375,0 c -2,0 -2,-2.03125 0,-2.03125 l 83.84375,0 c 0.0842,0 0.20727,-0.0414 0.3125,-0.0625 z"
       id="rect3075"
       inkscape:connector-curvature="0" />
    <path
       inkscape:connector-curvature="0"
       id="rect3845"
       d="m 195.35036,-48.92735 91.31982,0 c 11.08,0 20,8.92 20,20 l 0,170.11172 c 0,11.08 -8.92,20 -20,20 l -91.31982,0 c -11.08,0 -20,-8.92 -20,-20 l 0,-170.11172 c 0,-11.08 8.92,-20 20,-20 z"
       style="fill:none;stroke:none;display:inline" />
    <path
       inkscape:connector-curvature="0"
       id="rect3847"
       d="m 211.51277,-44.88674 73.13708,0 c 11.08,0 20,8.92 20,20 l 0,178.19295 c 0,11.08 -8.92,20 -20,20 l -73.13708,0 c -11.08,0 -20,-8.92 -20,-20 l 0,-178.19295 c 0,-11.08 8.92,-20 20,-20 z"
       style="fill:none;stroke:none;display:inline" />
    <path
       style="font-size:medium;font-style:normal;font-variant:normal;font-weight:normal;font-stretch:normal;text-indent:0;text-align:start;text-decoration:none;line-height:normal;letter-spacing:normal;word-spacing:normal;text-transform:none;direction:ltr;block-progression:tb;writing-mode:lr-tb;text-anchor:start;baseline-shift:baseline;color:#000000;fill:#ffffff;fill-opacity:1;stroke:none;stroke-width:15;marker:none;visibility:visible;display:inline;overflow:visible;enable-background:accumulate;font-family:Sans;-inkscape-font-specification:Sans"
       d="m 168.9951,30.04145 c -3.20069,2.34142 -7.37509,3.78125 -11.96875,3.78125 -0.89133,0 -1.76799,-0.053 -2.625,-0.15625 0.46255,2.79947 0.71875,5.67908 0.71875,8.625 l 0,35.5625 c 0,29.21473 -23.28527,52.5 -52.5,52.5 l -5.25,0 c -2.53271,0 -5.00522,-0.19255 -7.4375,-0.53125 -1.44641,5.21553 -3.70576,9.9812 -6.625,14.0625 4.53759,0.96278 9.23901,1.46875 14.0625,1.46875 l 5.25,0 c 37.26527,0 67.5,-30.23473 67.5,-67.5 l 0,-35.5625 c 0,-4.18714 -0.39563,-8.27584 -1.125,-12.25 z"
       id="path4027"
       inkscape:connector-curvature="0" />
    <path
       inkscape:connector-curvature="0"
       id="rect4085"
       d="m 173.10669,62.10821 193.14218,0 c 5.54,0 10,2.92843 10,6.56599 0,3.63756 -4.46,6.56599 -10,6.56599 l -193.14218,0 c -5.54,0 -10,-2.92843 -10,-6.56599 0,-3.63756 4.46,-6.56599 10,-6.56599 z"
       style="fill:#ffffff;fill-opacity:1;stroke:none;display:inline" />
    <path
       style="font-size:medium;font-style:normal;font-variant:normal;font-weight:normal;font-stretch:normal;text-indent:0;text-align:start;text-decoration:none;line-height:normal;letter-spacing:normal;word-spacing:normal;text-transform:none;direction:ltr;block-progression:tb;writing-mode:lr-tb;text-anchor:start;baseline-shift:baseline;color:#000000;fill:#ffffff;fill-opacity:1;stroke:none;stroke-width:15;marker:none;visibility:visible;display:inline;overflow:visible;enable-background:accumulate;font-family:Sans;-inkscape-font-specification:Sans"
       d="m 312.46862,24.898593 c -3.67466,1.791757 -7.54744,3.34814 -11.58082,4.672848 l 0,101.972619 c 0,15.36008 -2.51911,29.13837 -6.17644,38.45878 -3.65733,9.3204 -7.88675,13.1885 -11.19479,13.1885 l -17.63663,0 c -0.93327,0 -1.94254,-0.30169 -2.99171,-0.95302 -1.10915,5.18045 -2.33443,9.90711 -3.64313,14.11077 2.0736,1.03203 4.28873,1.59861 6.63484,1.59861 l 17.63663,0 c 9.5235,0 16.85367,-9.31795 21.56928,-21.33524 4.7156,-12.0173 7.38277,-27.72837 7.38277,-45.0684 l 0,-105.53874 c 0,-0.371536 0.002,-0.736677 0,-1.106727 z"
       id="rect4094"
       inkscape:connector-curvature="0" />
    <path
       inkscape:connector-curvature="0"
       id="path4198"
       d="m 370.4326,30.04145 c 3.20069,2.34142 7.37509,3.78125 11.96875,3.78125 0.89133,0 1.76799,-0.053 2.625,-0.15625 -0.46255,2.79947 -0.71875,5.67908 -0.71875,8.625 l 0,35.5625 c 0,29.21473 23.28527,52.5 52.5,52.5 l 5.25,0 c 2.53271,0 5.00522,-0.19255 7.4375,-0.53125 1.44641,5.21553 3.70576,9.9812 6.625,14.0625 -4.53759,0.96278 -9.23901,1.46875 -14.0625,1.46875 l -5.25,0 c -37.26527,0 -67.5,-30.23473 -67.5,-67.5 l 0,-35.5625 c 0,-4.18714 0.39563,-8.27584 1.125,-12.25 z"
       style="font-size:medium;font-style:normal;font-variant:normal;font-weight:normal;font-stretch:normal;text-indent:0;text-align:start;text-decoration:none;line-height:normal;letter-spacing:normal;word-spacing:normal;text-transform:none;direction:ltr;block-progression:tb;writing-mode:lr-tb;text-anchor:start;baseline-shift:baseline;color:#000000;fill:#ffffff;fill-opacity:1;stroke:none;stroke-width:15;marker:none;visibility:visible;display:inline;overflow:visible;enable-background:accumulate;font-family:Sans;-inkscape-font-specification:Sans" />
  </g>
  <g
     inkscape:groupmode="layer"
     id="layer5"
     inkscape:label="scala"
     transform="translate(1.3627266e-7,-1.8035365)"
     style="display:none"
     sodipodi:insensitive="true">
    <rect
       style="fill:#ffffff;fill-opacity:1;stroke:none"
       id="rect4192"
       width="122.80843"
       height="28.389978"
       x="178.20094"
       y="480.56094"
       rx="10.302894"
       ry="10.037373"
       transform="matrix(0.94748848,-0.31978989,0.33938263,0.94064841,0,0)" />
    <rect
       transform="matrix(0.94748848,-0.31978989,0.33938263,0.94064841,0,0)"
       ry="10.037373"
       rx="10.302894"
       y="524.15479"
       x="162.58604"
       height="28.389978"
       width="122.80843"
       id="rect4194"
       style="fill:#ffffff;fill-opacity:1;stroke:none" />
    <rect
       style="fill:#ffffff;fill-opacity:1;stroke:none"
       id="rect4196"
       width="122.80843"
       height="28.389978"
       x="150.73448"
       y="569.02808"
       rx="10.302894"
       ry="10.037373"
       transform="matrix(0.94748848,-0.31978989,0.33938263,0.94064841,0,0)" />
  </g>
</svg>
